<?xml version="1.0" encoding="utf-8"?>
<!-- Generator: Adobe Illustrator 26.2.1, SVG Export Plug-In . SVG Version: 6.00 Build 0)  -->
<svg version="1.1" id="Layer_1" xmlns="http://www.w3.org/2000/svg" xmlns:xlink="http://www.w3.org/1999/xlink" x="0px" y="0px"
	 viewBox="0 0 552 125" style="enable-background:new 0 0 552 125;" xml:space="preserve">
<style type="text/css">
	.st0{fill:#56ABEC;}
	.st1{fill:#32C2F4;}
	.st2{fill:#32E7FA;}
	.st3{fill:#329CEE;}
	.st4{fill-rule:evenodd;clip-rule:evenodd;fill:#0C2631;}
	.st5{fill:#0C2631;}
</style>
<path class="st0" d="M44.86,8.06v77.7h42c23.2,0,42-18.8,42-42s-18.8-42-42-42h-35.7C47.7,1.8,44.9,4.6,44.86,8.06z"/>
<path class="st1" d="M74.56,49.76c3.46,0.04,6.26,2.84,6.3,6.3c0,0,0,0,0,0l0,29.7h-36v-36h29.59c0.01,0,0.02,0,0.03,0
	c0.01,0,0.02,0,0.03,0L74.56,49.76C74.56,49.76,74.56,49.76,74.56,49.76z"/>
<path class="st1" d="M74.56,49.76c3.46,0.04,6.26,2.84,6.3,6.3c0,0,0,0,0,0l0,29.7h-36v-36h29.59c0.01,0,0.02,0,0.03,0
	c0.01,0,0.02,0,0.03,0L74.56,49.76C74.56,49.76,74.56,49.76,74.56,49.76z"/>
<path class="st2" d="M7.79,49.76c0.02,0,0.03,0,0.05,0l37.02,0v36l-25.79,0c-1.71,0-3.46,0-4.43-1.95L2.21,59.36
	c-0.51-1.01-0.85-2.08-0.85-3.23c0-3.49,2.8-6.32,6.28-6.37c0.01,0,0.02,0,0.02,0c0.01,0,0.02,0,0.03,0c0.01,0,0.03,0,0.04,0
	C7.76,49.76,7.77,49.76,7.79,49.76z"/>
<path class="st2" d="M80.86,115.33c0-0.02,0-0.03,0-0.05l0-29.52h-36l0,18.29c0,1.71,0,3.46,1.95,4.43l24.45,12.44
	c1.01,0.51,2.08,0.85,3.23,0.85c3.49,0,6.32-2.8,6.37-6.28c0-0.01,0-0.02,0-0.02c0-0.01,0-0.02,0-0.03c0-0.01,0-0.03,0-0.04
	C80.86,115.37,80.86,115.35,80.86,115.33z"/>
<path class="st3" d="M80.86,85.76h6c7.55,0,14.64-1.99,20.77-5.48L79.26,51.91c0.98,1.11,1.59,2.56,1.6,4.16L80.86,85.76z"/>
<path class="st4" d="M160.96,52.53h9.64c5.85,0,8.66-2.55,8.66-6.94c0-4.31-2.77-6.86-8.66-6.86h-9.64V52.53z M149.86,28.26h21.49
	c12.04,0,19.35,6.64,19.31,17.36c0,10.76-7.31,17.4-19.35,17.4h-10.39v18.24h-11.06V28.26z"/>
<polygon class="st5" points="310.94,28.26 299.88,28.26 299.88,81.03 335.28,81.03 335.28,70.45 310.94,70.45 "/>
<path class="st4" d="M230.36,72.26c5.8,0,10.5-4.7,10.5-10.5c0-5.8-4.7-10.5-10.5-10.5s-10.5,4.7-10.5,10.5
	C219.86,67.56,224.56,72.26,230.36,72.26z M251.36,61.51c0,11.18-8.62,20.25-19.25,20.25c-3.75,0-7.25-1.13-10.21-3.08v2.08h0v14.38
	h-10.54V42.26h10.54v2.08c2.96-1.95,6.46-3.08,10.21-3.08C242.74,41.26,251.36,50.33,251.36,61.51z"/>
<path class="st4" d="M266.28,56.79c1.43-4.46,4.91-6.79,9.86-6.79c4.76,0,7.99,2.18,8.96,6.79H266.28z M295.68,60.46
	c0-11.89-8.06-19.2-19.35-19.2c-12.38,0-20.96,8.59-20.96,20.59c0,11.74,8.21,19.95,21.04,19.95c7.54,0,13.73-2.77,18.08-8.29
	l-8.18-4.72c-2.89,2.92-6.11,4.05-9.75,4.05c-5.96,0-9.79-2.92-10.69-8.59h29.63C295.6,62.94,295.68,61.74,295.68,60.46z"/>
<path class="st4" d="M369.08,68.08c-2.33,2.7-5.51,3.97-8.74,3.97c-5.81,0-10.09-4.16-10.09-10.54c0-6.41,4.31-10.54,10.09-10.54
	c3.23,0,6.41,1.27,8.74,3.9V68.08z M369.08,44.71c-2.85-2.25-6.49-3.45-10.39-3.45c-10.54,0-19.13,8.44-19.13,20.29
	c0,11.74,8.59,20.29,19.13,20.29c3.9,0,7.54-1.2,10.39-3.45v2.55h10.54V42.16h-10.54V44.71z"/>
<path class="st5" d="M411.49,67.98c-2.4,2.78-5.44,4.09-8.36,4.09c-4.46,0-7.01-2.85-7.01-8.59V42.14h-10.54v23.59
	c0,10.24,5.81,16.05,14.63,16.05c4.24,0,8.14-1.27,11.29-3.75v2.85h10.54V42.14h-10.54V67.98z"/>
<path class="st5" d="M438.36,45.09c3.15-2.55,7.13-3.82,11.29-3.82c8.89,0,15,5.85,15,16.35V80.9h-10.54V59.86
	c0-5.96-2.78-8.89-7.31-8.89c-2.93,0-5.96,1.31-8.44,4.09V80.9h-10.54V42.16h10.54V45.09z"/>
<path class="st5" d="M498.71,67.59c-2.48,2.92-5.63,4.46-9.04,4.46c-5.59,0-10.01-4.05-10.01-10.54c0-6.26,4.24-10.54,9.86-10.54
	c3.38,0,6.49,1.58,9.19,5.14l8.14-6.49c-3.9-5.36-10.09-8.36-17.25-8.36c-11.59,0-20.74,8.36-20.74,20.44
	c0,11.89,8.81,20.1,20.51,20.1c7.54,0,14.1-3.38,17.85-9.26L498.71,67.59z"/>
<path class="st5" d="M522.1,45.31c3.15-2.55,7.13-3.83,11.29-3.83c8.89,0,15,5.85,15,16.35v23.29h-10.54V60.09
	c0-5.96-2.78-8.89-7.31-8.89c-2.93,0-5.96,1.31-8.44,4.09v25.84h-10.54V28.26h10.54V45.31z"/>
<path class="st5" d="M200.15,28.26c-3,0-5.29,2.36-5.29,5.17c0,2.93,2.33,5.25,5.29,5.25c2.85,0,5.25-2.32,5.25-5.25
	C205.4,30.63,203,28.26,200.15,28.26z"/>
<polygon class="st5" points="205.4,42.39 194.86,42.39 194.86,81.26 205.4,81.26 205.4,80.76 205.4,80.76 "/>
</svg>
