<svg xmlns="http://www.w3.org/2000/svg" xmlns:xlink="http://www.w3.org/1999/xlink" viewBox="-3 0 336 325"><defs><clipPath id="b"><rect shape-rendering="crispEdges" width="336" height="325"/></clipPath></defs><g id="a" clip-path="url(#b)"><rect width="336" height="325" fill="transparent"/><g transform="translate(-777 -348)"><rect width="23" height="23" rx="2" transform="translate(795 359)" fill="#e3e9f0"/></g><rect width="83" height="9" rx="4.5" transform="translate(53 19)" fill="#d5dce5"/><g transform="translate(-2 -109)"><rect width="97" height="9" rx="4.5" transform="translate(88 180)" fill="#d5dce5"/><rect width="219" height="9" rx="4.5" transform="translate(87 201)" fill="#d5dce5" opacity="0.4"/></g><g transform="translate(-2 -21)" opacity="0.67"><rect width="97" height="9" rx="4.5" transform="translate(88 180)" fill="#d5dce5"/><rect width="219" height="9" rx="4.5" transform="translate(87 201)" fill="#d5dce5" opacity="0.4"/></g><g transform="translate(-2 67)" opacity="0.24"><rect width="97" height="9" rx="4.5" transform="translate(88 180)" fill="#d5dce5"/><rect width="219" height="9" rx="4.5" transform="translate(87 201)" fill="#d5dce5" opacity="0.4"/></g><g transform="translate(10 46)" fill="none" stroke="#dddbda" stroke-width="1"><rect width="310" height="80" rx="4" stroke="none"/><rect x="0.5" y="0.5" width="309" height="79" rx="3.5" fill="none"/></g><g transform="translate(10 134)" fill="none" stroke="#dddbda" stroke-width="1" opacity="0.67"><rect width="310" height="80" rx="4" stroke="none"/><rect x="0.5" y="0.5" width="309" height="79" rx="3.5" fill="none"/></g><g transform="translate(10 222)" fill="none" stroke="#dddbda" stroke-width="1" opacity="0.24"><rect width="310" height="80" rx="4" stroke="none"/><rect x="0.5" y="0.5" width="309" height="79" rx="3.5" fill="none"/></g><circle cx="26.5" cy="26.5" r="26.5" transform="translate(23 60)" fill="#e3e9f0"/><circle cx="26.5" cy="26.5" r="26.5" transform="translate(23 148)" fill="#e3e9f0" opacity="0.67"/><circle cx="26.5" cy="26.5" r="26.5" transform="translate(23 236)" fill="#e3e9f0" opacity="0.24"/></g></svg>